<svg width="37" height="42" viewBox="0 0 37 42" fill="none" xmlns="http://www.w3.org/2000/svg">
<g clip-path="url(#clip0_235_266)">
<path d="M25.5 21H11.5C11.2348 21 10.9804 20.8946 10.7929 20.7071C10.6054 20.5196 10.5 20.2652 10.5 20V11H7.5L17.827 1.612C18.0111 1.44448 18.2511 1.35164 18.5 1.35164C18.7489 1.35164 18.9889 1.44448 19.173 1.612L29.5 11H26.5V20C26.5 20.2652 26.3946 20.5196 26.2071 20.7071C26.0196 20.8946 25.7652 21 25.5 21ZM12.5 19H24.5V9.157L18.5 3.703L12.5 9.157V19ZM14.5 15H22.5V17H14.5V15Z" fill="#FF0000"/>
</g>
<path d="M7.776 28.624V37H6.096V33.436H2.508V37H0.828V28.624H2.508V32.068H6.096V28.624H7.776ZM12.3816 37.108C11.7416 37.108 11.1656 36.968 10.6536 36.688C10.1416 36.4 9.73756 35.996 9.44156 35.476C9.15356 34.956 9.00956 34.356 9.00956 33.676C9.00956 32.996 9.15756 32.396 9.45356 31.876C9.75756 31.356 10.1696 30.956 10.6896 30.676C11.2096 30.388 11.7896 30.244 12.4296 30.244C13.0696 30.244 13.6496 30.388 14.1696 30.676C14.6896 30.956 15.0976 31.356 15.3936 31.876C15.6976 32.396 15.8496 32.996 15.8496 33.676C15.8496 34.356 15.6936 34.956 15.3816 35.476C15.0776 35.996 14.6616 36.4 14.1336 36.688C13.6136 36.968 13.0296 37.108 12.3816 37.108ZM12.3816 35.644C12.6856 35.644 12.9696 35.572 13.2336 35.428C13.5056 35.276 13.7216 35.052 13.8816 34.756C14.0416 34.46 14.1216 34.1 14.1216 33.676C14.1216 33.044 13.9536 32.56 13.6176 32.224C13.2896 31.88 12.8856 31.708 12.4056 31.708C11.9256 31.708 11.5216 31.88 11.1936 32.224C10.8736 32.56 10.7136 33.044 10.7136 33.676C10.7136 34.308 10.8696 34.796 11.1816 35.14C11.5016 35.476 11.9016 35.644 12.3816 35.644ZM25.3379 30.256C26.1539 30.256 26.8099 30.508 27.3059 31.012C27.8099 31.508 28.0619 32.204 28.0619 33.1V37H26.3819V33.328C26.3819 32.808 26.2499 32.412 25.9859 32.14C25.7219 31.86 25.3619 31.72 24.9059 31.72C24.4499 31.72 24.0859 31.86 23.8139 32.14C23.5499 32.412 23.4179 32.808 23.4179 33.328V37H21.7379V33.328C21.7379 32.808 21.6059 32.412 21.3419 32.14C21.0779 31.86 20.7179 31.72 20.2619 31.72C19.7979 31.72 19.4299 31.86 19.1579 32.14C18.8939 32.412 18.7619 32.808 18.7619 33.328V37H17.0819V30.352H18.7619V31.156C18.9779 30.876 19.2539 30.656 19.5899 30.496C19.9339 30.336 20.3099 30.256 20.7179 30.256C21.2379 30.256 21.7019 30.368 22.1099 30.592C22.5179 30.808 22.8339 31.12 23.0579 31.528C23.2739 31.144 23.5859 30.836 23.9939 30.604C24.4099 30.372 24.8579 30.256 25.3379 30.256ZM35.8361 33.532C35.8361 33.772 35.8201 33.988 35.7881 34.18H30.9281C30.9681 34.66 31.1361 35.036 31.4321 35.308C31.7281 35.58 32.0921 35.716 32.5241 35.716C33.1481 35.716 33.5921 35.448 33.8561 34.912H35.6681C35.4761 35.552 35.1081 36.08 34.5641 36.496C34.0201 36.904 33.3521 37.108 32.5601 37.108C31.9201 37.108 31.3441 36.968 30.8321 36.688C30.3281 36.4 29.9321 35.996 29.6441 35.476C29.3641 34.956 29.2241 34.356 29.2241 33.676C29.2241 32.988 29.3641 32.384 29.6441 31.864C29.9241 31.344 30.3161 30.944 30.8201 30.664C31.3241 30.384 31.9041 30.244 32.5601 30.244C33.1921 30.244 33.7561 30.38 34.2521 30.652C34.7561 30.924 35.1441 31.312 35.4161 31.816C35.6961 32.312 35.8361 32.884 35.8361 33.532ZM34.0961 33.052C34.0881 32.62 33.9321 32.276 33.6281 32.02C33.3241 31.756 32.9521 31.624 32.5121 31.624C32.0961 31.624 31.7441 31.752 31.4561 32.008C31.1761 32.256 31.0041 32.604 30.9401 33.052H34.0961Z" fill="#FF0000"/>
<defs>
<clipPath id="clip0_235_266">
<rect width="24" height="24" fill="white" transform="translate(6.5)"/>
</clipPath>
</defs>
</svg>
