<svg width="39" height="42" viewBox="0 0 39 42" fill="none" xmlns="http://www.w3.org/2000/svg">
<g clip-path="url(#clip0_239_236)">
<path d="M19.5 22C13.977 22 9.5 17.523 9.5 12C9.5 6.477 13.977 2 19.5 2C25.023 2 29.5 6.477 29.5 12C29.5 17.523 25.023 22 19.5 22ZM14.513 18.256C15.9285 19.3877 17.6877 20.0029 19.5 20C21.47 20 23.273 19.288 24.667 18.108C24.0157 17.4397 23.2371 16.9089 22.377 16.5468C21.517 16.1847 20.5931 15.9988 19.66 16C18.6926 15.9989 17.7355 16.1989 16.8495 16.5872C15.9634 16.9756 15.1678 17.5439 14.513 18.256ZM13.116 16.82C13.9565 15.9281 14.9707 15.2177 16.0961 14.7327C17.2216 14.2477 18.4345 13.9984 19.66 14C20.8417 13.9985 22.012 14.2304 23.1037 14.6824C24.1955 15.1344 25.1873 15.7976 26.022 16.634C26.8781 15.4291 27.3836 14.0106 27.4826 12.5359C27.5815 11.0612 27.27 9.58789 26.5825 8.27946C25.895 6.97102 24.8585 5.87862 23.588 5.12345C22.3174 4.36827 20.8625 3.97984 19.3846 4.00125C17.9067 4.02267 16.4637 4.45308 15.2155 5.24476C13.9674 6.03643 12.963 7.1584 12.3137 8.4862C11.6644 9.814 11.3957 11.2957 11.5373 12.7669C11.6789 14.2382 12.2254 15.6414 13.116 16.821V16.82ZM19.5 13C18.4391 13 17.4217 12.5786 16.6716 11.8284C15.9214 11.0783 15.5 10.0609 15.5 9C15.5 7.93913 15.9214 6.92172 16.6716 6.17157C17.4217 5.42143 18.4391 5 19.5 5C20.5609 5 21.5783 5.42143 22.3284 6.17157C23.0786 6.92172 23.5 7.93913 23.5 9C23.5 10.0609 23.0786 11.0783 22.3284 11.8284C21.5783 12.5786 20.5609 13 19.5 13ZM19.5 11C20.0304 11 20.5391 10.7893 20.9142 10.4142C21.2893 10.0391 21.5 9.53043 21.5 9C21.5 8.46957 21.2893 7.96086 20.9142 7.58579C20.5391 7.21071 20.0304 7 19.5 7C18.9696 7 18.4609 7.21071 18.0858 7.58579C17.7107 7.96086 17.5 8.46957 17.5 9C17.5 9.53043 17.7107 10.0391 18.0858 10.4142C18.4609 10.7893 18.9696 11 19.5 11Z" fill="#FF0000"/>
</g>
<path d="M6.936 31.216C6.936 31.664 6.828 32.084 6.612 32.476C6.404 32.868 6.072 33.184 5.616 33.424C5.168 33.664 4.6 33.784 3.912 33.784H2.508V37H0.828V28.624H3.912C4.56 28.624 5.112 28.736 5.568 28.96C6.024 29.184 6.364 29.492 6.588 29.884C6.82 30.276 6.936 30.72 6.936 31.216ZM3.84 32.428C4.304 32.428 4.648 32.324 4.872 32.116C5.096 31.9 5.208 31.6 5.208 31.216C5.208 30.4 4.752 29.992 3.84 29.992H2.508V32.428H3.84ZM9.80878 31.384C10.0248 31.032 10.3048 30.756 10.6488 30.556C11.0008 30.356 11.4008 30.256 11.8488 30.256V32.02H11.4048C10.8768 32.02 10.4768 32.144 10.2048 32.392C9.94078 32.64 9.80878 33.072 9.80878 33.688V37H8.12878V30.352H9.80878V31.384ZM15.9323 37.108C15.2923 37.108 14.7163 36.968 14.2043 36.688C13.6923 36.4 13.2883 35.996 12.9923 35.476C12.7043 34.956 12.5603 34.356 12.5603 33.676C12.5603 32.996 12.7083 32.396 13.0043 31.876C13.3083 31.356 13.7203 30.956 14.2403 30.676C14.7603 30.388 15.3403 30.244 15.9803 30.244C16.6203 30.244 17.2003 30.388 17.7203 30.676C18.2403 30.956 18.6483 31.356 18.9443 31.876C19.2483 32.396 19.4003 32.996 19.4003 33.676C19.4003 34.356 19.2443 34.956 18.9323 35.476C18.6283 35.996 18.2123 36.4 17.6843 36.688C17.1643 36.968 16.5803 37.108 15.9323 37.108ZM15.9323 35.644C16.2363 35.644 16.5203 35.572 16.7843 35.428C17.0563 35.276 17.2723 35.052 17.4323 34.756C17.5923 34.46 17.6723 34.1 17.6723 33.676C17.6723 33.044 17.5043 32.56 17.1683 32.224C16.8403 31.88 16.4363 31.708 15.9563 31.708C15.4763 31.708 15.0723 31.88 14.7443 32.224C14.4243 32.56 14.2643 33.044 14.2643 33.676C14.2643 34.308 14.4203 34.796 14.7323 35.14C15.0523 35.476 15.4523 35.644 15.9323 35.644ZM23.6807 31.732H22.5167V37H20.8127V31.732H20.0567V30.352H20.8127V30.016C20.8127 29.2 21.0447 28.6 21.5087 28.216C21.9727 27.832 22.6727 27.652 23.6087 27.676V29.092C23.2007 29.084 22.9167 29.152 22.7567 29.296C22.5967 29.44 22.5167 29.7 22.5167 30.076V30.352H23.6807V31.732ZM25.6214 29.56C25.3254 29.56 25.0774 29.468 24.8774 29.284C24.6854 29.092 24.5894 28.856 24.5894 28.576C24.5894 28.296 24.6854 28.064 24.8774 27.88C25.0774 27.688 25.3254 27.592 25.6214 27.592C25.9174 27.592 26.1614 27.688 26.3534 27.88C26.5534 28.064 26.6534 28.296 26.6534 28.576C26.6534 28.856 26.5534 29.092 26.3534 29.284C26.1614 29.468 25.9174 29.56 25.6214 29.56ZM26.4494 30.352V37H24.7694V30.352H26.4494ZM29.7893 28.12V37H28.1093V28.12H29.7893ZM37.6291 33.532C37.6291 33.772 37.6131 33.988 37.5811 34.18H32.7211C32.7611 34.66 32.9291 35.036 33.2251 35.308C33.5211 35.58 33.8851 35.716 34.3171 35.716C34.9411 35.716 35.3851 35.448 35.6491 34.912H37.4611C37.2691 35.552 36.9011 36.08 36.3571 36.496C35.8131 36.904 35.1451 37.108 34.3531 37.108C33.7131 37.108 33.1371 36.968 32.6251 36.688C32.1211 36.4 31.7251 35.996 31.4371 35.476C31.1571 34.956 31.0171 34.356 31.0171 33.676C31.0171 32.988 31.1571 32.384 31.4371 31.864C31.7171 31.344 32.1091 30.944 32.6131 30.664C33.1171 30.384 33.6971 30.244 34.3531 30.244C34.9851 30.244 35.5491 30.38 36.0451 30.652C36.5491 30.924 36.9371 31.312 37.2091 31.816C37.4891 32.312 37.6291 32.884 37.6291 33.532ZM35.8891 33.052C35.8811 32.62 35.7251 32.276 35.4211 32.02C35.1171 31.756 34.7451 31.624 34.3051 31.624C33.8891 31.624 33.5371 31.752 33.2491 32.008C32.9691 32.256 32.7971 32.604 32.7331 33.052H35.8891Z" fill="#FF0000"/>
<defs>
<clipPath id="clip0_239_236">
<rect width="24" height="24" fill="white" transform="translate(7.5)"/>
</clipPath>
</defs>
</svg>
