<svg width="36" height="42" viewBox="0 0 36 42" fill="none" xmlns="http://www.w3.org/2000/svg">
<g clip-path="url(#clip0_235_264)">
<path d="M25 21H11C10.7348 21 10.4804 20.8946 10.2929 20.7071C10.1054 20.5196 10 20.2652 10 20V11H7L17.327 1.612C17.5111 1.44448 17.7511 1.35164 18 1.35164C18.2489 1.35164 18.4889 1.44448 18.673 1.612L29 11H26V20C26 20.2652 25.8946 20.5196 25.7071 20.7071C25.5196 20.8946 25.2652 21 25 21ZM12 19H24V9.157L18 3.703L12 9.157V19ZM14 15H22V17H14V15Z" fill="white"/>
</g>
<path d="M7.368 28.636V37H6.276V33.208H2.016V37H0.924V28.636H2.016V32.308H6.276V28.636H7.368ZM12.1006 37.108C11.4846 37.108 10.9246 36.968 10.4206 36.688C9.92459 36.408 9.53259 36.012 9.24459 35.5C8.96459 34.98 8.82459 34.38 8.82459 33.7C8.82459 33.028 8.96859 32.436 9.25659 31.924C9.55259 31.404 9.95259 31.008 10.4566 30.736C10.9606 30.456 11.5246 30.316 12.1486 30.316C12.7726 30.316 13.3366 30.456 13.8406 30.736C14.3446 31.008 14.7406 31.4 15.0286 31.912C15.3246 32.424 15.4726 33.02 15.4726 33.7C15.4726 34.38 15.3206 34.98 15.0166 35.5C14.7206 36.012 14.3166 36.408 13.8046 36.688C13.2926 36.968 12.7246 37.108 12.1006 37.108ZM12.1006 36.148C12.4926 36.148 12.8606 36.056 13.2046 35.872C13.5486 35.688 13.8246 35.412 14.0326 35.044C14.2486 34.676 14.3566 34.228 14.3566 33.7C14.3566 33.172 14.2526 32.724 14.0446 32.356C13.8366 31.988 13.5646 31.716 13.2286 31.54C12.8926 31.356 12.5286 31.264 12.1366 31.264C11.7366 31.264 11.3686 31.356 11.0326 31.54C10.7046 31.716 10.4406 31.988 10.2406 32.356C10.0406 32.724 9.94059 33.172 9.94059 33.7C9.94059 34.236 10.0366 34.688 10.2286 35.056C10.4286 35.424 10.6926 35.7 11.0206 35.884C11.3486 36.06 11.7086 36.148 12.1006 36.148ZM24.8164 30.304C25.3284 30.304 25.7844 30.412 26.1844 30.628C26.5844 30.836 26.9004 31.152 27.1324 31.576C27.3644 32 27.4804 32.516 27.4804 33.124V37H26.4004V33.28C26.4004 32.624 26.2364 32.124 25.9084 31.78C25.5884 31.428 25.1524 31.252 24.6004 31.252C24.0324 31.252 23.5804 31.436 23.2444 31.804C22.9084 32.164 22.7404 32.688 22.7404 33.376V37H21.6604V33.28C21.6604 32.624 21.4964 32.124 21.1684 31.78C20.8484 31.428 20.4124 31.252 19.8604 31.252C19.2924 31.252 18.8404 31.436 18.5044 31.804C18.1684 32.164 18.0004 32.688 18.0004 33.376V37H16.9084V30.424H18.0004V31.372C18.2164 31.028 18.5044 30.764 18.8644 30.58C19.2324 30.396 19.6364 30.304 20.0764 30.304C20.6284 30.304 21.1164 30.428 21.5404 30.676C21.9644 30.924 22.2804 31.288 22.4884 31.768C22.6724 31.304 22.9764 30.944 23.4004 30.688C23.8244 30.432 24.2964 30.304 24.8164 30.304ZM35.2717 33.46C35.2717 33.668 35.2597 33.888 35.2357 34.12H29.9797C30.0197 34.768 30.2397 35.276 30.6397 35.644C31.0477 36.004 31.5397 36.184 32.1157 36.184C32.5877 36.184 32.9797 36.076 33.2917 35.86C33.6117 35.636 33.8357 35.34 33.9637 34.972H35.1397C34.9637 35.604 34.6117 36.12 34.0837 36.52C33.5557 36.912 32.8997 37.108 32.1157 37.108C31.4917 37.108 30.9317 36.968 30.4357 36.688C29.9477 36.408 29.5637 36.012 29.2837 35.5C29.0037 34.98 28.8637 34.38 28.8637 33.7C28.8637 33.02 28.9997 32.424 29.2717 31.912C29.5437 31.4 29.9237 31.008 30.4117 30.736C30.9077 30.456 31.4757 30.316 32.1157 30.316C32.7397 30.316 33.2917 30.452 33.7717 30.724C34.2517 30.996 34.6197 31.372 34.8757 31.852C35.1397 32.324 35.2717 32.86 35.2717 33.46ZM34.1437 33.232C34.1437 32.816 34.0517 32.46 33.8677 32.164C33.6837 31.86 33.4317 31.632 33.1117 31.48C32.7997 31.32 32.4517 31.24 32.0677 31.24C31.5157 31.24 31.0437 31.416 30.6517 31.768C30.2677 32.12 30.0477 32.608 29.9917 33.232H34.1437Z" fill="white"/>
<defs>
<clipPath id="clip0_235_264">
<rect width="24" height="24" fill="white" transform="translate(6)"/>
</clipPath>
</defs>
</svg>
