<svg width="37" height="42" viewBox="0 0 37 42" fill="none" xmlns="http://www.w3.org/2000/svg">
<g clip-path="url(#clip0_239_233)">
<path d="M18.5 22C12.977 22 8.5 17.523 8.5 12C8.5 6.477 12.977 2 18.5 2C24.023 2 28.5 6.477 28.5 12C28.5 17.523 24.023 22 18.5 22ZM13.513 18.256C14.9285 19.3877 16.6877 20.0029 18.5 20C20.47 20 22.273 19.288 23.667 18.108C23.0157 17.4397 22.2371 16.9089 21.377 16.5468C20.517 16.1847 19.5931 15.9988 18.66 16C17.6926 15.9989 16.7355 16.1989 15.8495 16.5872C14.9634 16.9756 14.1678 17.5439 13.513 18.256ZM12.116 16.82C12.9565 15.9281 13.9707 15.2177 15.0961 14.7327C16.2216 14.2477 17.4345 13.9984 18.66 14C19.8417 13.9985 21.012 14.2304 22.1037 14.6824C23.1955 15.1344 24.1873 15.7976 25.022 16.634C25.8781 15.4291 26.3836 14.0106 26.4826 12.5359C26.5815 11.0612 26.27 9.58789 25.5825 8.27946C24.895 6.97102 23.8585 5.87862 22.588 5.12345C21.3174 4.36827 19.8625 3.97984 18.3846 4.00125C16.9067 4.02267 15.4637 4.45308 14.2155 5.24476C12.9674 6.03643 11.963 7.1584 11.3137 8.4862C10.6644 9.814 10.3957 11.2957 10.5373 12.7669C10.6789 14.2382 11.2254 15.6414 12.116 16.821V16.82ZM18.5 13C17.4391 13 16.4217 12.5786 15.6716 11.8284C14.9214 11.0783 14.5 10.0609 14.5 9C14.5 7.93913 14.9214 6.92172 15.6716 6.17157C16.4217 5.42143 17.4391 5 18.5 5C19.5609 5 20.5783 5.42143 21.3284 6.17157C22.0786 6.92172 22.5 7.93913 22.5 9C22.5 10.0609 22.0786 11.0783 21.3284 11.8284C20.5783 12.5786 19.5609 13 18.5 13ZM18.5 11C19.0304 11 19.5391 10.7893 19.9142 10.4142C20.2893 10.0391 20.5 9.53043 20.5 9C20.5 8.46957 20.2893 7.96086 19.9142 7.58579C19.5391 7.21071 19.0304 7 18.5 7C17.9696 7 17.4609 7.21071 17.0858 7.58579C16.7107 7.96086 16.5 8.46957 16.5 9C16.5 9.53043 16.7107 10.0391 17.0858 10.4142C17.4609 10.7893 17.9696 11 18.5 11Z" fill="white"/>
</g>
<path d="M6.516 31.084C6.516 31.78 6.276 32.36 5.796 32.824C5.324 33.28 4.6 33.508 3.624 33.508H2.016V37H0.924V28.636H3.624C4.568 28.636 5.284 28.864 5.772 29.32C6.268 29.776 6.516 30.364 6.516 31.084ZM3.624 32.608C4.232 32.608 4.68 32.476 4.968 32.212C5.256 31.948 5.4 31.572 5.4 31.084C5.4 30.052 4.808 29.536 3.624 29.536H2.016V32.608H3.624ZM8.96522 31.492C9.15722 31.116 9.42922 30.824 9.78122 30.616C10.1412 30.408 10.5772 30.304 11.0892 30.304V31.432H10.8012C9.57722 31.432 8.96522 32.096 8.96522 33.424V37H7.87322V30.424H8.96522V31.492ZM15.2178 37.108C14.6018 37.108 14.0418 36.968 13.5378 36.688C13.0418 36.408 12.6498 36.012 12.3618 35.5C12.0818 34.98 11.9418 34.38 11.9418 33.7C11.9418 33.028 12.0858 32.436 12.3738 31.924C12.6698 31.404 13.0698 31.008 13.5738 30.736C14.0778 30.456 14.6418 30.316 15.2658 30.316C15.8898 30.316 16.4538 30.456 16.9578 30.736C17.4618 31.008 17.8578 31.4 18.1458 31.912C18.4418 32.424 18.5898 33.02 18.5898 33.7C18.5898 34.38 18.4378 34.98 18.1338 35.5C17.8378 36.012 17.4338 36.408 16.9218 36.688C16.4098 36.968 15.8418 37.108 15.2178 37.108ZM15.2178 36.148C15.6098 36.148 15.9778 36.056 16.3218 35.872C16.6658 35.688 16.9418 35.412 17.1498 35.044C17.3658 34.676 17.4738 34.228 17.4738 33.7C17.4738 33.172 17.3698 32.724 17.1618 32.356C16.9538 31.988 16.6818 31.716 16.3458 31.54C16.0098 31.356 15.6458 31.264 15.2538 31.264C14.8538 31.264 14.4858 31.356 14.1498 31.54C13.8218 31.716 13.5578 31.988 13.3578 32.356C13.1578 32.724 13.0578 33.172 13.0578 33.7C13.0578 34.236 13.1538 34.688 13.3458 35.056C13.5458 35.424 13.8098 35.7 14.1378 35.884C14.4658 36.06 14.8258 36.148 15.2178 36.148ZM22.7016 31.324H21.3216V37H20.2296V31.324H19.3776V30.424H20.2296V29.956C20.2296 29.22 20.4176 28.684 20.7936 28.348C21.1776 28.004 21.7896 27.832 22.6296 27.832V28.744C22.1496 28.744 21.8096 28.84 21.6096 29.032C21.4176 29.216 21.3216 29.524 21.3216 29.956V30.424H22.7016V31.324ZM24.5388 29.356C24.3308 29.356 24.1548 29.284 24.0108 29.14C23.8668 28.996 23.7948 28.82 23.7948 28.612C23.7948 28.404 23.8668 28.228 24.0108 28.084C24.1548 27.94 24.3308 27.868 24.5388 27.868C24.7388 27.868 24.9068 27.94 25.0428 28.084C25.1868 28.228 25.2588 28.404 25.2588 28.612C25.2588 28.82 25.1868 28.996 25.0428 29.14C24.9068 29.284 24.7388 29.356 24.5388 29.356ZM25.0668 30.424V37H23.9748V30.424H25.0668ZM28.0199 28.12V37H26.9279V28.12H28.0199ZM35.881 33.46C35.881 33.668 35.869 33.888 35.845 34.12H30.589C30.629 34.768 30.849 35.276 31.249 35.644C31.657 36.004 32.149 36.184 32.725 36.184C33.197 36.184 33.589 36.076 33.901 35.86C34.221 35.636 34.445 35.34 34.573 34.972H35.749C35.573 35.604 35.221 36.12 34.693 36.52C34.165 36.912 33.509 37.108 32.725 37.108C32.101 37.108 31.541 36.968 31.045 36.688C30.557 36.408 30.173 36.012 29.893 35.5C29.613 34.98 29.473 34.38 29.473 33.7C29.473 33.02 29.609 32.424 29.881 31.912C30.153 31.4 30.533 31.008 31.021 30.736C31.517 30.456 32.085 30.316 32.725 30.316C33.349 30.316 33.901 30.452 34.381 30.724C34.861 30.996 35.229 31.372 35.485 31.852C35.749 32.324 35.881 32.86 35.881 33.46ZM34.753 33.232C34.753 32.816 34.661 32.46 34.477 32.164C34.293 31.86 34.041 31.632 33.721 31.48C33.409 31.32 33.061 31.24 32.677 31.24C32.125 31.24 31.653 31.416 31.261 31.768C30.877 32.12 30.657 32.608 30.601 33.232H34.753Z" fill="white"/>
<defs>
<clipPath id="clip0_239_233">
<rect width="24" height="24" fill="white" transform="translate(6.5)"/>
</clipPath>
</defs>
</svg>
