<svg width="40" height="40" viewBox="0 0 40 40" fill="none" xmlns="http://www.w3.org/2000/svg">
<g clip-path="url(#clip0_255_1558)">
<rect width="40" height="40" rx="20" fill="#FFCACA"/>
<path d="M25.556 10.344V23.728C25.556 25.8 24.968 27.396 23.792 28.516C22.6347 29.636 21.0667 30.196 19.088 30.196C17.016 30.196 15.3547 29.608 14.104 28.432C12.8533 27.256 12.228 25.5853 12.228 23.42H16.988C16.988 24.2413 17.156 24.8667 17.492 25.296C17.828 25.7067 18.3133 25.912 18.948 25.912C19.5267 25.912 19.9747 25.7253 20.292 25.352C20.6093 24.9787 20.768 24.4373 20.768 23.728V10.344H25.556Z" fill="black"/>
</g>
<defs>
<clipPath id="clip0_255_1558">
<rect width="40" height="40" rx="20" fill="white"/>
</clipPath>
</defs>
</svg>
